<svg id="_ëîé_1" data-name="‘ëîé_1" xmlns="http://www.w3.org/2000/svg" viewBox="0 0 3009.2 1142.3"><defs><style>.cls-1{fill:#ebf3fa;}.cls-2{fill:#f99746;}.cls-3{fill:#ed7d2b;}.cls-4{fill:#163560;}.cls-5{fill:#ffb27d;}.cls-6{fill:#ed985f;}.cls-7{fill:#d2e3fc;}.cls-8{fill:#b7d3f3;}.cls-9{fill:#fff;}.cls-10{fill:#395a8e;}.cls-11{fill:#233862;}.cls-12{fill:#172a49;}.cls-13{fill:#8e342e;}.cls-14{fill:#ed975d;}.cls-15{fill:#77a4e5;}.cls-16{fill:#274672;}.cls-17{fill:#c0d8fb;}.cls-18{fill:#dfebfd;}.cls-19{fill:#f9ddbf;}.cls-20{fill:#eac3a0;}.cls-21{fill:#2b478b;}.cls-22{fill:#1b3051;}.cls-23{fill:#1e3c68;}.cls-24{fill:#d5e5fb;}.cls-25{opacity:0.5;}.cls-26{fill:#9fc1f4;}.cls-27{fill:#afcdfb;}.cls-28{fill:#2e3552;}</style></defs><path class="cls-1" d="M228.7,1568.9s-312.9-545.7,68-961.9C531,350.9,884.3,513.6,1285.9,474.5s589.2-87.1,829.5,5,559.7-6,748.6,292.2c353.3,557.6,165.6,790.6,165.6,790.6Z" transform="translate(-107.8 -426.6)"/><path class="cls-2" d="M1880.5,1159.8s-4.3-43.5-14.8-82.5a12.5,12.5,0,0,1,12.1-15.8h110.7l18,98.3S1878.2,1163.7,1880.5,1159.8Z" transform="translate(-107.8 -426.6)"/><path class="cls-3" d="M1891.1,1159.8s-4.3-43.5-14.8-82.5a12.5,12.5,0,0,1,12-15.8H1999l18.1,98.3S1888.7,1163.7,1891.1,1159.8Z" transform="translate(-107.8 -426.6)"/><path class="cls-4" d="M2051.8,864.2s-30.7-4.8-47.9,21.4-35.1,62.3-23.6,72.8c9.9,9,8.6,16.2,0,20.6-36.7,18.8-16.2,36.3-3.2,42.7s124.6,20.5,129.2,13.2c23.5-37.1-15.1-53.4-8.6-64.9C2103.2,960.3,2137.6,873.9,2051.8,864.2Z" transform="translate(-107.8 -426.6)"/><path class="cls-5" d="M2092.9,1048.3c-8,6.1-13,28.3-25.8,32-48.2,13.7-74-43.5-82.5-71.4a42.7,42.7,0,0,1,16.3-5.9c3.5-.6,7.1-1,10.2-1.3,5.3-4.5,12.5-22.1,13-48.8l2.3.5,38.9,8.5s-1.1,12.3-1.4,23.9c-.2,9.1-.5,11.3.2,12.3,3.1.5,6.6,8.3,6.6,8.3h.1A252.6,252.6,0,0,1,2092.9,1048.3Z" transform="translate(-107.8 -426.6)"/><path class="cls-6" d="M2065.4,961.9s-1.2,12.3-1.5,23.9c-21.8-1-33-21.2-37.5-32.4Z" transform="translate(-107.8 -426.6)"/><path class="cls-7" d="M2263.4,1163.9s-22.9.8-47.8.9h-8.8c-20.3-.1-40.2-.8-48.7-3s-40.1-23.7-65.5-49.8h0c-2,4.7-3.5,8.3-3.5,8.6a131.1,131.1,0,0,1-3.6,17.4,208.4,208.4,0,0,1-15.7,40.2h-13.6l-106.5-.2s20.1-31,14.7-110.3c-.1-2,18.6-66.1,18.6-66.1s14.5-2.5,31.2-3.8c1.6,1.4,4.9,43.5,25.9,46,3.4.4,25.2,33.8,25.2,33.8l6.7-34.2-7.9-45.3c10.1,3,15.6,4,24,7.4a26.5,26.5,0,0,1,13.3,11.8c14.7,26.8,62.3,113.2,67.1,115.2s21.7,5.3,39.8,8.6h0c24.3,4.5,50.3,8.7,50.3,8.7Z" transform="translate(-107.8 -426.6)"/><path class="cls-7" d="M2077.4,1178.2h0Z" transform="translate(-107.8 -426.6)"/><path class="cls-5" d="M2071.8,973.7s-51.7-1.1-50.6-33.3-4.8-54.1,28.3-54.8,39.1,11.8,41.3,22.7S2085.3,973.1,2071.8,973.7Z" transform="translate(-107.8 -426.6)"/><path class="cls-8" d="M2215.6,1164.8h-8.8c-20.3-.1-40.2-.8-48.7-3s-40.1-23.7-65.5-49.8h0s5.3-20.6,7.6-24,11.5,30,32.8,43.6,54.8,23.2,71,19.3C2214.9,1148.3,2216.1,1158.1,2215.6,1164.8Z" transform="translate(-107.8 -426.6)"/><path class="cls-9" d="M2061.7,955.7s.3,3.9,8.8,4.5c0,0,7.1.5,7.4-3.7C2077.9,956.5,2071.4,952.6,2061.7,955.7Z" transform="translate(-107.8 -426.6)"/><path class="cls-5" d="M2148.8,1139.4s20.7-3.5,22.8-2.7,15.5,7.5,17.4,9.4,7.5,9.9,7.5,9.9-1.9.7-2.9,0-8.5-7.2-8.5-7.2l8.1,9.9s-2.4.2-3.5-.8l-8.3-6.9-2.3-.2a24.8,24.8,0,0,1,3.9,3.1,20.8,20.8,0,0,1,2.4,3.2,19.5,19.5,0,0,1-2.7-.3c-.6-.3-7-4.8-7-4.8l3.5,3.9a7.3,7.3,0,0,1-2.8-.2c-.7-.4-5.7-4.2-6.6-4.1s-6.6.5-9.2-.5-10.8-3.3-10.8-3.3Z" transform="translate(-107.8 -426.6)"/><path class="cls-8" d="M2018.8,987.5s-16.4,8.4-19.7,11.8c0,0,15.5,39.7,37.9,58.2l5.9-4.2v9.6l22.5,14.7S2017.7,999.5,2018.8,987.5Z" transform="translate(-107.8 -426.6)"/><path class="cls-8" d="M2085.5,1138a208.4,208.4,0,0,1-15.7,40.2h-62.5c-.2-.7,11.9-33.7-8.2-47.2s-27.5-46.8-27.5-46.8l64.2-15.7s26.5,38.6,34,46c5.8,5.7,19.3,6.1,19.3,6.1Z" transform="translate(-107.8 -426.6)"/><path class="cls-8" d="M2063.5,997.8s7.5,54.3,1.9,79.8c0,0,9.1-16.9,10.4-19.9l-1.5-9.3,5.9,2s-4.7-43.4-10-50.5c-2.3-3.2-6.4-7.7-6.4-7.7Z" transform="translate(-107.8 -426.6)"/><path class="cls-5" d="M2263.4,1163.9s-28.6,1-56.6.9c-7-10.8,1.5-23.7,1.5-23.7h0c24.3,4.5,50.3,8.7,50.3,8.7Z" transform="translate(-107.8 -426.6)"/><path class="cls-5" d="M2154.1,1148.4s-52.2,7.5-80.5,9.3l5-27.5c19,3.1,70.2,9.2,70.2,9.2Z" transform="translate(-107.8 -426.6)"/><path class="cls-7" d="M1999.1,999.3s-31.2.7-40.8,11.1,9.5,69.3,9.5,69.3,58.1,71.2,87.2,76.2c0,0,12.7,1.8,18.6,1.8,0,0,6.6-13.7,5-27.5,0,0-12.4-3.5-13-5S1999.1,999.3,1999.1,999.3Z" transform="translate(-107.8 -426.6)"/><path class="cls-4" d="M2082.3,889s-12.5,45.8-67.5,44.6c0,0-5.6-43.3,24-50.3S2082.3,889,2082.3,889Z" transform="translate(-107.8 -426.6)"/><path class="cls-4" d="M2090.9,921s3-13.7-17-24.9c0,0,14.2-16,20.3-6.7S2090.9,921,2090.9,921Z" transform="translate(-107.8 -426.6)"/><path class="cls-3" d="M2020.5,981.5s-9.8,5.2-11.9,11.5c0,0,9.3,24.3,40.9,32.7C2049.5,1025.7,2026.7,999,2020.5,981.5Z" transform="translate(-107.8 -426.6)"/><path class="cls-3" d="M2063.9,987.5s1,30.4-14.4,38.2c0,0,19-2.2,21.3-19.3C2072.1,996.3,2068.8,989.7,2063.9,987.5Z" transform="translate(-107.8 -426.6)"/><path class="cls-3" d="M2051.1,1023.2s-7,21.1-5.2,26.6,14.2,30,14.4,37.9c0,0,9-12.5,8.7-27.6S2051.1,1023.2,2051.1,1023.2Z" transform="translate(-107.8 -426.6)"/><path class="cls-2" d="M2052.6,1023.7s-1.7,14.5,0,18.7,10.3,9.3,18.5,10.3c0,0,2.2-6.2-1.4-10.7S2053.6,1029.7,2052.6,1023.7Z" transform="translate(-107.8 -426.6)"/><path class="cls-3" d="M2045.9,1023.8s.7-4,2.8-4.9,6.9,1.7,7.5,3.2a4.5,4.5,0,0,1-3.2,5.4C2050.2,1028.2,2045.3,1025.7,2045.9,1023.8Z" transform="translate(-107.8 -426.6)"/><polygon class="cls-10" points="2240.5 701 2049.9 701 2068.6 564.6 2259.2 564.6 2240.5 701"/><polygon class="cls-11" points="2245 701 2054.4 701 2073.1 564.6 2263.7 564.6 2245 701"/><polygon class="cls-10" points="2181.7 623.6 2165.6 733.2 2127.4 733.2 2128.1 728.4 2143.5 623.6 2181.7 623.6"/><polygon class="cls-12" points="2168.4 733.2 2130.2 733.2 2146.3 623.6 2184.5 623.6 2168.4 733.2"/><path class="cls-12" d="M2241.4,1159.8h63.4a4.9,4.9,0,0,0-4.9-4.9h-57.7Z" transform="translate(-107.8 -426.6)"/><path class="cls-10" d="M2265.1,1159.8h-29.9l.7-4.9h24.3A4.9,4.9,0,0,1,2265.1,1159.8Z" transform="translate(-107.8 -426.6)"/><path class="cls-2" d="M349.2,1159.8s-4.3-43.5-14.8-82.5a12.5,12.5,0,0,1,12.1-15.8H457.2l18,98.3S346.9,1163.7,349.2,1159.8Z" transform="translate(-107.8 -426.6)"/><path class="cls-3" d="M359.8,1159.8s-4.3-43.5-14.8-82.5a12.5,12.5,0,0,1,12-15.8H467.7l18.1,98.3S357.4,1163.7,359.8,1159.8Z" transform="translate(-107.8 -426.6)"/><path class="cls-2" d="M1143.9,1159.8s-4.3-43.5-14.8-82.5a12.5,12.5,0,0,1,12.1-15.8h110.7l18.1,98.3S1141.6,1163.7,1143.9,1159.8Z" transform="translate(-107.8 -426.6)"/><path class="cls-3" d="M1154.5,1159.8s-4.3-43.5-14.8-82.5a12.5,12.5,0,0,1,12-15.8h110.7l18.1,98.3S1152.2,1163.7,1154.5,1159.8Z" transform="translate(-107.8 -426.6)"/><path class="cls-13" d="M519.9,872.4s-36.5-21-62.1-1.2-17.9,31.8-38.3,67.6c-15.1,26.4,8.5,38.4,47.6,45s66.3,23.5,76.3,8.4S550.8,890.8,519.9,872.4Z" transform="translate(-107.8 -426.6)"/><path class="cls-5" d="M527.8,1048.3c-8,6.1-13,28.3-25.9,32-48.1,13.7-74-43.5-82.4-71.4a41.8,41.8,0,0,1,16.2-5.9c3.5-.6,7.2-1,10.3-1.3,5.2-4.5,12.5-22.1,12.9-48.8l2.4.5,38.9,8.5s-1.1,12.3-1.4,23.9c-.2,9.1-.5,11.3.2,12.3,3,.5,6.6,8.3,6.6,8.3h0A248.8,248.8,0,0,1,527.8,1048.3Z" transform="translate(-107.8 -426.6)"/><path class="cls-6" d="M500.2,961.9s-1.1,12.3-1.4,23.9c-21.9-1-33-21.2-37.5-32.4Z" transform="translate(-107.8 -426.6)"/><path class="cls-7" d="M650.5,1164.8h-8.9c-20.2-.1-40.1-.8-48.6-3s-40.1-23.7-65.6-49.8h0c-2,4.7-3.5,8.3-3.5,8.6a130.7,130.7,0,0,1-3.5,17.4,216.1,216.1,0,0,1-15.7,40.2H491l-106.4-.2s20.1-31,14.7-110.3c-.2-2,18.5-66.1,18.5-66.1s14.5-2.5,31.3-3.8c1.6,1.4,4.8,43.5,25.8,46,3.4.4,25.3,33.8,25.3,33.8l6.6-34.2L499,998.1c10.1,3,15.6,4,23.9,7.4a27.1,27.1,0,0,1,13.4,11.8c14.6,26.8,62.2,113.2,67.1,115.2s21.6,5.3,39.8,8.6h0C656.4,1143.5,675.4,1164.7,650.5,1164.8Z" transform="translate(-107.8 -426.6)"/><path class="cls-7" d="M512.3,1178.2h0Z" transform="translate(-107.8 -426.6)"/><path class="cls-5" d="M506.7,973.7s-51.8-1.1-50.7-33.3-4.7-54.1,28.4-54.8,39.1,11.8,41.3,22.7S520.2,973.1,506.7,973.7Z" transform="translate(-107.8 -426.6)"/><path class="cls-8" d="M650.5,1164.8h-8.9c-20.2-.1-40.1-.8-48.6-3s-40.1-23.7-65.6-49.8h0s5.4-20.6,7.7-24,11.5,30,32.8,43.6,54.8,23.2,71,19.3C649.8,1148.3,650.9,1158.1,650.5,1164.8Z" transform="translate(-107.8 -426.6)"/><path class="cls-9" d="M496.5,955.7s.4,3.9,8.8,4.5c0,0,7.2.5,7.5-3.7C512.8,956.5,506.3,952.6,496.5,955.7Z" transform="translate(-107.8 -426.6)"/><path class="cls-5" d="M589.2,1145.2s22.2-1.3,24.4-.1,15.4,9.6,17.3,11.8,6.8,11.2,6.8,11.2-2.2.6-3.1-.3-8.2-8.5-8.2-8.5l7.4,11.3s-2.5-.1-3.6-1.3l-7.9-8.2-2.4-.4a23.3,23.3,0,0,1,3.7,3.7,22.9,22.9,0,0,1,2.2,3.6,22,22,0,0,1-2.8-.7c-.6-.3-6.9-5.8-6.9-5.8l3.3,4.6a11.3,11.3,0,0,1-2.9-.6c-.8-.5-5.6-5-6.5-5s-7.1-.3-9.7-1.7-11-4.6-11-4.6Z" transform="translate(-107.8 -426.6)"/><path class="cls-8" d="M453.7,987.5s-16.4,8.4-19.8,11.8c0,0,15.5,39.7,37.9,58.2l6-4.2v9.6l22.4,14.7S452.5,999.5,453.7,987.5Z" transform="translate(-107.8 -426.6)"/><path class="cls-8" d="M520.4,1138a216.1,216.1,0,0,1-15.7,40.2H442.1c-.2-.7,12-33.7-8.2-47.2s-27.5-46.8-27.5-46.8l64.2-15.7s26.5,38.6,34,46c5.8,5.7,19.3,6.1,19.3,6.1Z" transform="translate(-107.8 -426.6)"/><path class="cls-8" d="M498.4,997.8s7.4,54.3,1.8,79.8c0,0,9.2-16.9,10.5-19.9l-1.6-9.3,5.9,2s-4.7-43.4-9.9-50.5c-2.3-3.2-6.5-7.7-6.5-7.7Z" transform="translate(-107.8 -426.6)"/><path class="cls-5" d="M589.3,1154.2s-54.5,4.7-84.7,3.4V1128c19.8,5.5,84.6,17.2,84.6,17.2Z" transform="translate(-107.8 -426.6)"/><path class="cls-7" d="M433.9,999.3s-31.1.7-40.8,11.1,9.6,69.3,9.6,69.3,58.1,71.2,87.1,76.2c0,0,12.7,1.8,18.7,1.8,0,0-5.9-16.9,5-27.5,0,0-12.5-3.5-13-5S433.9,999.3,433.9,999.3Z" transform="translate(-107.8 -426.6)"/><path class="cls-13" d="M517.1,889s-12.5,45.8-67.4,44.6c0,0-5.7-43.3,23.9-50.3S517.1,889,517.1,889Z" transform="translate(-107.8 -426.6)"/><path class="cls-13" d="M525.7,921s3.1-13.7-16.9-24.9c0,0,14.2-16,20.2-6.7S525.7,921,525.7,921Z" transform="translate(-107.8 -426.6)"/><path class="cls-3" d="M455.4,981.5s-9.8,5.2-12,11.5c0,0,9.3,24.3,41,32.7C484.4,1025.7,461.6,999,455.4,981.5Z" transform="translate(-107.8 -426.6)"/><path class="cls-3" d="M498.8,987.5s1,30.4-14.4,38.2c0,0,18.9-2.2,21.2-19.3C507,996.3,503.6,989.7,498.8,987.5Z" transform="translate(-107.8 -426.6)"/><path class="cls-3" d="M486,1023.2s-7,21.1-5.3,26.6,14.3,30,14.4,37.9c0,0,9-12.5,8.8-27.6S486,1023.2,486,1023.2Z" transform="translate(-107.8 -426.6)"/><path class="cls-2" d="M487.4,1023.7s-1.6,14.5,0,18.7,10.4,9.3,18.5,10.3c0,0,2.3-6.2-1.3-10.7S488.5,1029.7,487.4,1023.7Z" transform="translate(-107.8 -426.6)"/><path class="cls-3" d="M480.7,1023.8s.8-4,2.8-4.9,6.9,1.7,7.6,3.2a4.6,4.6,0,0,1-3.3,5.4C485.1,1028.2,480.2,1025.7,480.7,1023.8Z" transform="translate(-107.8 -426.6)"/><path class="cls-11" d="M1362.2,878.9c-6.4-5.1-18.1-8.5-22.2-8.4a53,53,0,0,1-9-.6c-35.8-4.8-57.3,47.1-58.5,62.8-2.4,29-17.7,33.5-39.3,51.6-43.3,36.4-30.6,78.7-6.9,94.4,14.2,9.5,39.2,0,39.2,0s68.5-38,102-56.5C1417.9,1015,1382.9,895.4,1362.2,878.9Z" transform="translate(-107.8 -426.6)"/><path class="cls-7" d="M1488.7,1147.2s-47-11.9-58.9-22.2c-10.2-8.8-31.7-90.7-41.9-111.4-6.9-14.1-37.7-23.4-46.1-25.1-.3-.3,7.2,76-4.1,67-34.7-27.5-29.1-46.7-40.8-71.2-.7-1.4-16.9,22.2-31.9,50.6-16.5,31.3-12,38-7.3,57.5.8,3.5,1.6,6.8,2.1,9.8,5.6,28.4.9,34.1,7.6,52.7,1.9,5.3,52.9,10.1,81.9,8.2,9.2-.6,16.2-1.9,18.7-4.1,8.9-7.7,9.4,5.9,10.3-50.4,2.2,5.6,17.3,45.3,26.6,49.6,13,6,87.5,1.6,87.5,1.6Z" transform="translate(-107.8 -426.6)"/><path class="cls-5" d="M1343.6,1008.6c.1.1,3.5,43.6-4.2,44.4-11.4,1.2-46.1-67.6-45.9-67.6,4.7-.2,10-4.4,14-31.7l2,.7,34.2,12.3s-2.5,10.9-4.1,21.4C1338.3,996.8,1341.7,1007.4,1343.6,1008.6Z" transform="translate(-107.8 -426.6)"/><path class="cls-14" d="M1343.7,966.7s-2.5,10.9-4.1,21.4c-19.6-3.6-27.3-23.1-30.1-33.7Z" transform="translate(-107.8 -426.6)"/><path class="cls-5" d="M1348.8,977.6s-46.7-6.3-42.4-35.3,1.3-49.4,31.3-46.7,34.1,14.8,35,24.8S1361,978.4,1348.8,977.6Z" transform="translate(-107.8 -426.6)"/><path class="cls-11" d="M1371,904.5s-29.9,25.8-50.2,27.8-28.1-4.4-28.1-4.4a79.9,79.9,0,0,0,19.2-26,14.4,14.4,0,0,1,11.8-8.5C1338.2,892.2,1365.8,891.6,1371,904.5Z" transform="translate(-107.8 -426.6)"/><path class="cls-11" d="M1352.3,902.2s10,9.7,13.2,16.8,3.9,23.5,1.5,30.1c0,0,15.6-30.3,6.8-45S1352.3,902.2,1352.3,902.2Z" transform="translate(-107.8 -426.6)"/><path class="cls-8" d="M1349.3,1163.1c-29,1.9-80-2.9-81.9-8.2-6.7-18.6-2-24.3-7.6-52.7l14-39.4s-2.3,43.9,10.6,55.4,53,22.3,59.3,31.9C1346.7,1154.7,1348.7,1159.4,1349.3,1163.1Z" transform="translate(-107.8 -426.6)"/><path class="cls-5" d="M1316.1,1144.6s28.6-6.3,33.2-3.8,15.9,11.8,17.3,15-10.3-2.4-14.1-3.4-8.9,1.5-12.1,2.6c-13.5,4.5-21.8,2.2-21.8,2.2Z" transform="translate(-107.8 -426.6)"/><path class="cls-7" d="M1296.9,984.3s-38.4,2.4-51.7,20.9c-18.7,26.1-55.8,137.4-34.6,152.2,24,16.7,109.1,4.4,109.1,4.4s2.8-13.2-1.1-19.6-68-16.8-70.9-19.7,36.9-57.7,36.9-66.5S1296.9,984.3,1296.9,984.3Z" transform="translate(-107.8 -426.6)"/><path class="cls-5" d="M1350.7,1148.8s6,7.7,7.9,8.6a5.3,5.3,0,0,0,3.3.7l-4.1-7.2Z" transform="translate(-107.8 -426.6)"/><path class="cls-5" d="M1349.3,1140.8l17.4,8.5s-.7,1.2-2.9,1.1-7.5-2.1-7.5-2.1Z" transform="translate(-107.8 -426.6)"/><path class="cls-8" d="M1298.5,982.5s-5.4-.5-16.4,3.9c0,0,12.5,44,33.3,61.2l5.5-3.9v9l20.9,13.6S1297.4,993.7,1298.5,982.5Z" transform="translate(-107.8 -426.6)"/><path class="cls-8" d="M1340.1,992.1s6.9,50.5,1.7,74.2c0,0,8.5-15.7,9.7-18.5l-1.4-8.7,5.5,2s-4.4-40.4-9.3-47.1c-2.1-2.9-6-7.1-6-7.1Z" transform="translate(-107.8 -426.6)"/><path class="cls-3" d="M1303.6,972.7s-9.1,4.7-11.1,10.6A47.5,47.5,0,0,0,1327,1018S1309.3,989,1303.6,972.7Z" transform="translate(-107.8 -426.6)"/><path class="cls-3" d="M1339.9,986.3s-.8,4-1.4,10.3-3.3,17.3-11.5,21.4c0,0,17.7-2,19.8-17.9C1348.1,990.7,1344.4,988.4,1339.9,986.3Z" transform="translate(-107.8 -426.6)"/><path class="cls-3" d="M1328.5,1015.7s-6.5,19.7-4.8,24.7,13.2,27.9,13.4,35.3c0,0,8.3-11.6,8.1-25.7S1328.5,1015.7,1328.5,1015.7Z" transform="translate(-107.8 -426.6)"/><path class="cls-2" d="M1329.9,1016.1s-1.5,13.6,0,17.5,9.6,8.7,17.2,9.5c0,0,2.1-5.7-1.2-9.9S1330.9,1021.7,1329.9,1016.1Z" transform="translate(-107.8 -426.6)"/><path class="cls-3" d="M1323.7,1016.3s.7-3.8,2.5-4.6,6.5,1.6,7.1,3a4.3,4.3,0,0,1-3,5.1C1327.7,1020.3,1323.2,1018,1323.7,1016.3Z" transform="translate(-107.8 -426.6)"/><path class="cls-11" d="M1342,1089.7a1.6,1.6,0,0,1,1.7-1.7,1.7,1.7,0,0,1,1.7,1.7,1.8,1.8,0,0,1-1.7,1.7A1.7,1.7,0,0,1,1342,1089.7Z" transform="translate(-107.8 -426.6)"/><path class="cls-11" d="M1336.7,1116.8a1.7,1.7,0,0,1,1.7-1.7,1.8,1.8,0,0,1,1.7,1.7,1.7,1.7,0,0,1-1.7,1.7A1.6,1.6,0,0,1,1336.7,1116.8Z" transform="translate(-107.8 -426.6)"/><rect class="cls-15" x="215.4" y="742.4" width="2397.5" height="394.17"/><rect class="cls-16" x="180" y="733.2" width="2460.9" height="31.44"/><rect class="cls-8" x="215.4" y="864.8" width="2397.5" height="151.13"/><rect class="cls-11" x="1188.5" y="726.8" width="144.4" height="6.47"/><rect class="cls-11" x="1974.1" y="726.8" width="144.4" height="6.47"/><rect class="cls-11" x="423.3" y="726.8" width="101.2" height="6.47"/><polygon class="cls-10" points="1476.5 701 1285.8 701 1304.5 564.6 1495.2 564.6 1476.5 701"/><polygon class="cls-11" points="1481 701 1290.3 701 1309 564.6 1499.6 564.6 1481 701"/><polygon class="cls-10" points="1417.7 623.6 1401.5 733.2 1363.3 733.2 1364 728.4 1379.5 623.6 1417.7 623.6"/><polygon class="cls-12" points="1404.3 733.2 1366.1 733.2 1382.3 623.6 1420.5 623.6 1404.3 733.2"/><path class="cls-12" d="M1477.4,1159.8h63.3a4.9,4.9,0,0,0-4.8-4.9h-57.8Z" transform="translate(-107.8 -426.6)"/><path class="cls-10" d="M1501.1,1159.8h-30l.8-4.9h24.3A4.9,4.9,0,0,1,1501.1,1159.8Z" transform="translate(-107.8 -426.6)"/><rect class="cls-17" x="2404.5" y="249.2" width="116.1" height="112.68" rx="8.3"/><rect class="cls-18" x="2409.5" y="254.1" width="106.1" height="102.92" rx="7.6"/><path class="cls-8" d="M2568,691a2.4,2.4,0,0,1,2.4-2.5,2.5,2.5,0,0,1,0,4.9A2.4,2.4,0,0,1,2568,691Z" transform="translate(-107.8 -426.6)"/><path class="cls-8" d="M2587.4,694.4a2.4,2.4,0,0,1,3.2-1,2.5,2.5,0,0,1,1,3.3,2.4,2.4,0,0,1-3.3.9A2.2,2.2,0,0,1,2587.4,694.4Z" transform="translate(-107.8 -426.6)"/><path class="cls-8" d="M2604,707.6a2.4,2.4,0,1,1,2.6,4,2.4,2.4,0,0,1-2.6-4Z" transform="translate(-107.8 -426.6)"/><path class="cls-8" d="M2612.2,728a2.4,2.4,0,0,1,2.4,2.4,2.3,2.3,0,0,1-2.4,2.4,2.4,2.4,0,0,1-2.4-2.4A2.4,2.4,0,0,1,2612.2,728Z" transform="translate(-107.8 -426.6)"/><path class="cls-8" d="M2608,751.8a2.3,2.3,0,0,1,0,3.4,2.4,2.4,0,0,1-3.4-3.4A2.3,2.3,0,0,1,2608,751.8Z" transform="translate(-107.8 -426.6)"/><path class="cls-8" d="M2592.9,766.9a2.3,2.3,0,0,1,0,3.4,2.4,2.4,0,1,1,0-3.4Z" transform="translate(-107.8 -426.6)"/><path class="cls-8" d="M2568,774.7a2.4,2.4,0,0,1,2.4-2.4,2.4,2.4,0,1,1,0,4.8A2.4,2.4,0,0,1,2568,774.7Z" transform="translate(-107.8 -426.6)"/><path class="cls-8" d="M2553.3,694.4a2.5,2.5,0,0,0-3.3-1,2.4,2.4,0,0,0-.9,3.3,2.2,2.2,0,0,0,3.2.9A2.4,2.4,0,0,0,2553.3,694.4Z" transform="translate(-107.8 -426.6)"/><path class="cls-8" d="M2536.6,707.6a2.3,2.3,0,0,0-3.3.7,2.4,2.4,0,0,0,.7,3.3,2.5,2.5,0,0,0,3.4-.7A2.3,2.3,0,0,0,2536.6,707.6Z" transform="translate(-107.8 -426.6)"/><path class="cls-8" d="M2528.4,728a2.4,2.4,0,0,0-2.4,2.4,2.4,2.4,0,0,0,4.8,0A2.4,2.4,0,0,0,2528.4,728Z" transform="translate(-107.8 -426.6)"/><path class="cls-8" d="M2532.6,751.8a2.4,2.4,0,0,0,3.4,3.4,2.4,2.4,0,1,0-3.4-3.4Z" transform="translate(-107.8 -426.6)"/><path class="cls-8" d="M2547.7,766.9a2.4,2.4,0,1,0,3.4,3.4,2.3,2.3,0,0,0,0-3.4A2.5,2.5,0,0,0,2547.7,766.9Z" transform="translate(-107.8 -426.6)"/><path class="cls-8" d="M2569.7,730.4a2.4,2.4,0,0,1,4.8,0,2.4,2.4,0,0,1-4.8,0Z" transform="translate(-107.8 -426.6)"/><rect class="cls-8" x="2464" y="273.8" width="0.7" height="30.06"/><rect class="cls-8" x="2569.7" y="723.1" width="20.3" height="1.97" transform="translate(-4.5 1320.7) rotate(-38.1)"/><path class="cls-12" d="M1748.1,1562.4h.3a3.6,3.6,0,0,0,3.6-3.7l-5.5-239-16.1-1.9,13.8,240.9A3.9,3.9,0,0,0,1748.1,1562.4Z" transform="translate(-107.8 -426.6)"/><path class="cls-12" d="M1842.2,1562.4h.3a3.6,3.6,0,0,0,3.6-3.7l-5.5-239-16.1-1.9,13.8,240.9A3.9,3.9,0,0,0,1842.2,1562.4Z" transform="translate(-107.8 -426.6)"/><path class="cls-12" d="M1582.5,1562.4h-.3a3.7,3.7,0,0,1-3.7-3.7l5.5-239,16.2-1.9-13.8,240.9A3.9,3.9,0,0,1,1582.5,1562.4Z" transform="translate(-107.8 -426.6)"/><path class="cls-12" d="M1852.9,1304.9V1141.1a52.1,52.1,0,0,0-51.9-52.2H1683.7a52,52,0,0,0-51.9,52.2v170Z" transform="translate(-107.8 -426.6)"/><path class="cls-12" d="M1626.4,1304.9h226.4a0,0,0,0,1,0,0v25.9a0,0,0,0,1,0,0H1610.8a0,0,0,0,1,0,0v-10.2A15.6,15.6,0,0,1,1626.4,1304.9Z" transform="translate(3355.8 2209) rotate(180)"/><path class="cls-12" d="M1583.7,1304.9H1755a11.6,11.6,0,0,1,11.6,11.6v2.8a11.5,11.5,0,0,1-11.5,11.5H1583.7a11.6,11.6,0,0,1-11.6-11.6v-2.8A11.6,11.6,0,0,1,1583.7,1304.9Z" transform="translate(3230.8 2209) rotate(180)"/><path class="cls-19" d="M1675.1,1040.4s10.5-3.6,12.6,18c1.7,16.5-9.7,144.2-18.3,154.3-24.2,28.6-54.5,16.5-66.3,20.9l-11.2-10.1s39.3-29,42.3-38.5C1645.7,1148.5,1637.9,1054.1,1675.1,1040.4Z" transform="translate(-107.8 -426.6)"/><path class="cls-4" d="M1682.8,924.3s-.6-23.4,30.3-28,39.4,2.6,44.6,10.5,15.1,40,14.1,52.8-36.2,28.6-35.6,36.1S1682.8,924.3,1682.8,924.3Z" transform="translate(-107.8 -426.6)"/><path class="cls-20" d="M1660.8,1148.5s.2,23.6.1,33.2c-.1,11.4-22.6,41.8-22.6,41.8l30.6-5.3s19-23.1,19-24.6S1660.8,1148.5,1660.8,1148.5Z" transform="translate(-107.8 -426.6)"/><path class="cls-5" d="M1539.6,1542.2c1,7.9-9.8,10.2-22.3,11.3s-8.7,3.6-25.8,7.4-24.2-.7-25.6-3,6.7-5.7,15.2-9.7l3.1-1.6c9.5-4.6,14.6-13.6,21.8-22s12.7-32.9,12.7-32.9l23.2-5.9s-5.8,22.4-7.7,32c-1.2,5.6,1,11.8,3,16.4A32.1,32.1,0,0,1,1539.6,1542.2Z" transform="translate(-107.8 -426.6)"/><path class="cls-11" d="M1517.3,1553.5c-12.6,1.1-8.7,3.6-25.8,7.4s-24.2-.7-25.6-3,6.7-5.7,15.2-9.7h.1a47.8,47.8,0,0,0,26.1-.6c11.3-3.6,22.1-10.9,29.9-13.5a32.1,32.1,0,0,1,2.4,8C1540.6,1550.1,1529.8,1552.4,1517.3,1553.5Z" transform="translate(-107.8 -426.6)"/><path class="cls-11" d="M1713.6,1219.5s-155.4,16.2-181,40-21,245.4-21,245.4c4,4.1,6.9,4,13.2,3.5s18.4-5.7,18.4-5.7,33.3-108.8,33.7-134,5.6-67.9,16.2-70.5,136.4,11.6,150.2-28.1-9.1-72.4-9.1-72.4Z" transform="translate(-107.8 -426.6)"/><path class="cls-19" d="M1786.2,1259.5c-6.7,4.5-18.7,11.4-38.8,12.1-36,1.4-80.9-2.9-89.8-11.3-2.2-2.1-3.4-5.7-3.7-10.2-1-13.9,5.6-36.6,10.1-55.4,2.8-12.2,2.9-22.2,1.3-27.6-4.9-16.4-18.2-50.4-19.5-61.4s11.4-57.5,29.3-65.3c44.6-19.6,88.4-8.5,88.4-8.5,27.3,5.5,29,60.4,19.9,110.1-.2,1.3-.5,2.5-.7,3.8C1772.8,1196.2,1804.9,1247,1786.2,1259.5Z" transform="translate(-107.8 -426.6)"/><path class="cls-5" d="M1695.7,1039.2c.5,3.2,9.3,8.4,28,3.4s22.7-9.4,22.7-13.3-10.4-11.8-10.3-39.9l-2.2.4-36.1,7.2s.8,11.3.8,22.1C1698.6,1028.1,1694.9,1033.8,1695.7,1039.2Z" transform="translate(-107.8 -426.6)"/><path class="cls-14" d="M1697.8,997s.8,11.3.8,22.1c20.3-.6,31-19.1,35.3-29.3Z" transform="translate(-107.8 -426.6)"/><path class="cls-5" d="M1691,1007.1s47.9.8,47.9-29,6.3-49.8-24.3-51.6-36.5,9.6-39,19.6S1678.6,1006.1,1691,1007.1Z" transform="translate(-107.8 -426.6)"/><path class="cls-4" d="M1692.8,925.8s13.1,35,33.2,40.1,28.9-.2,28.9-.2a56.6,56.6,0,0,1-18.7-33.6S1702.7,909.1,1692.8,925.8Z" transform="translate(-107.8 -426.6)"/><path class="cls-4" d="M1696,928.6s-9.8,7.8-12.1,15.4-3.5,23.3-8.1,22.7c0,0-9.8-23.8,1.3-37.2S1696,928.6,1696,928.6Z" transform="translate(-107.8 -426.6)"/><path class="cls-5" d="M1665.3,1547.7c.3,7.9-10.6,9.4-23.2,9.4s-8.9,2.8-26.3,5.2-24.1-2.8-25.2-5.2,7.1-5.1,15.8-8.4l3.3-1.2c9.8-3.9,15.6-12.4,23.5-20.2s-10.6-41.3-10.6-41.3l21.8-11.6s5,24.4,11.1,45.8c1.6,5.5,6.4,14.5,8,19.4A36.6,36.6,0,0,1,1665.3,1547.7Z" transform="translate(-107.8 -426.6)"/><path class="cls-20" d="M1785.3,1253.6c-6.8,4.5-17.8,17.3-37.9,18-33.2-7.5-71-16.3-93.5-21.5-1-13.9,24.1-10.5,28.5-29.3,30-13.9,48.3-35.8,59.9-56.1,8.9-15.5,13.4-49.1,13.4-49.1l27.7,26.4c-.2,1.3-.5,2.5-.7,3.8C1772.8,1196.2,1804,1241.1,1785.3,1253.6Z" transform="translate(-107.8 -426.6)"/><path class="cls-11" d="M1642.1,1557.1c-12.6,0-8.9,2.8-26.3,5.2s-24.1-2.8-25.2-5.2,7.1-5.1,15.8-8.4v.2a48.9,48.9,0,0,0,26.1,1.5c11.6-2.6,22.9-9,30.9-10.8a36.6,36.6,0,0,1,1.8,8.1C1665.6,1555.6,1654.7,1557.1,1642.1,1557.1Z" transform="translate(-107.8 -426.6)"/><path class="cls-21" d="M1746.6,1224.9c-45.9-3.5-156.7,12.4-179.4,29.5-27.8,21,51.8,248.2,51.8,248.2s9.2.9,12.1.5a86,86,0,0,0,21.9-5.3s-4.4-133.7-13.7-159.2c-8.6-23.7-13.8-32-3.1-33.5s145.2,15.8,156.4-24.8c8.7-31.7-4.2-61-4.2-61S1782.9,1227.7,1746.6,1224.9Z" transform="translate(-107.8 -426.6)"/><path class="cls-19" d="M1767.2,1033s14.1,4.5,21.9,24.8c9.8,25.4,18,127.7,9.4,137.9-24.2,28.5-104.7,34.6-116.6,38.9l-3.3-13.5s86-43.3,84.7-53.2S1740.9,1029.1,1767.2,1033Z" transform="translate(-107.8 -426.6)"/><path class="cls-4" d="M1742.8,908.1s-1.9-12.5,15.4-15.8,17.6,33.6,19.5,42.5-2.8,14.2-9.4,14.7S1742.8,908.1,1742.8,908.1Z" transform="translate(-107.8 -426.6)"/><path class="cls-5" d="M1677.7,1220.5s-24.5-6.9-30.3-5.3-25.8,14.9-23,18.5,20.4-2.2,28.5-1.1,14.4,5.1,20.2,4.2a74.6,74.6,0,0,0,11.9-3.1Z" transform="translate(-107.8 -426.6)"/><path class="cls-5" d="M1677.7,1220.5s-12-6.1-15.4-9.6a.9.9,0,0,0-1.5.1c-.9,1.5-1.7,4.3,2.5,7C1669.3,1222,1677.7,1220.5,1677.7,1220.5Z" transform="translate(-107.8 -426.6)"/><path class="cls-5" d="M1591.9,1223.5s-25.4,1.4-30.4,4.8-19.6,22.4-15.8,24.9,18.6-8.6,26.6-10.2,15.3.1,20.5-2.6a66.5,66.5,0,0,0,10.3-6.8Z" transform="translate(-107.8 -426.6)"/><path class="cls-12" d="M2566.4,1564.2h.3a3.6,3.6,0,0,0,3.6-3.8l-5.5-239-16.1-1.8,13.8,240.8A4,4,0,0,0,2566.4,1564.2Z" transform="translate(-107.8 -426.6)"/><path class="cls-12" d="M2660.5,1564.2h.3a3.6,3.6,0,0,0,3.6-3.8l-5.5-239-16.1-1.8,13.8,240.8A4,4,0,0,0,2660.5,1564.2Z" transform="translate(-107.8 -426.6)"/><path class="cls-12" d="M2400.8,1564.2h-.3a3.6,3.6,0,0,1-3.6-3.8l5.4-239,16.2-1.8-13.8,240.8A4,4,0,0,1,2400.8,1564.2Z" transform="translate(-107.8 -426.6)"/><path class="cls-12" d="M2671.2,1322.6V1146.7c0-30.9-23.3-56-51.9-56H2502c-28.7,0-51.9,25.1-51.9,56v182.6Z" transform="translate(-107.8 -426.6)"/><path class="cls-12" d="M2444.7,1321h226.4a0,0,0,0,1,0,0v25.9a0,0,0,0,1,0,0H2429.1a0,0,0,0,1,0,0v-10.2A15.6,15.6,0,0,1,2444.7,1321Z" transform="translate(4992.5 2241.3) rotate(180)"/><path class="cls-12" d="M2402,1321h171.3a11.5,11.5,0,0,1,11.5,11.5v2.8a11.6,11.6,0,0,1-11.6,11.6H2402a11.5,11.5,0,0,1-11.5-11.5v-2.8A11.6,11.6,0,0,1,2402,1321Z" transform="translate(4867.5 2241.3) rotate(180)"/><path class="cls-22" d="M2187.3,1564.4h109c5.3-6.4,8.2-36.5,7.4-44.2-.1-1.6-2.1-8.8-2.1-8.8s-40.2-17-45.4,5.8a16,16,0,0,1-.5,2.1c-6.5,21.3-35.4,31-52,33.7C2192.8,1554.8,2188.8,1560.4,2187.3,1564.4Z" transform="translate(-107.8 -426.6)"/><path class="cls-11" d="M2484.6,1224.1c-4,0-149.3,20.3-179.5,54.3-15.1,16.9-54.6,239.4-54.6,239.4s18.3,13,58.7.8c0,0,53.3-143.9,51.1-184.6-.6-11.3,129.2-16,152.1-21.4s51.5-18.6,39.1-40.7S2484.6,1224.1,2484.6,1224.1Z" transform="translate(-107.8 -426.6)"/><path class="cls-23" d="M2259.9,1564.4h109c5.3-6.4,3.3-30,2.5-37.7-.1-1.6-.2-2.5-.2-2.5s-37.3-29.8-42.4-7a16,16,0,0,1-.5,2.1c-6.5,21.3-35.4,31-52.1,33.7C2265.4,1554.8,2261.4,1560.4,2259.9,1564.4Z" transform="translate(-107.8 -426.6)"/><path class="cls-21" d="M2542.4,1235.8c-3.9,0-177.4,8.6-207.7,46.1-15.1,18.7-17.3,234.6-17.3,234.6s18.6,23.2,59,9.8c0,0,37.1-114.6,34.4-192.7-.5-12.4,108-13.8,137.8-16.1,37.8-3.1,47.3-66.5,35-90.8S2542.4,1235.8,2542.4,1235.8Z" transform="translate(-107.8 -426.6)"/><path class="cls-5" d="M2353.5,1235.8l-7.5,4.8s-24.2,4.3-30.9,13.2c0,0-14.2,26.3-4.8,24.5s13-10.5,26.3-12.7,21.6-2.3,24.5-11.5l11.5-10.9Z" transform="translate(-107.8 -426.6)"/><path class="cls-2" d="M2439.9,1080.3c-1.9,8.2-2.9,13.7-2.5,14.3,5.6,9.3,11.8,53.4,3.5,73.7-.7,1.8-.2,8.4-1.4,10.7-4.9,9.6-18.2,23.8-31.8,37h0c-18.3,17.7-37,33.4-37,33.4a13.9,13.9,0,0,1-11.6-1c-4.3-2.5-8.6-10.7-8.6-10.7,2.8-4.4,20.4-50.1,34.7-79.1,6.1-12.4,15.8-127.5,27.6-142.9,9.9-12.9,48.4-21.6,48.4-21.6s-7.7,29.7-14.4,56.8c-2.6,10.7-5.1,21-6.8,28.9A.9.9,0,0,0,2439.9,1080.3Z" transform="translate(-107.8 -426.6)"/><path class="cls-5" d="M2449.7,950.9s14.3,23.8,11.3,44.6l21.6,51.1,38.1-59.7s-19.1-22.6-26.6-53.4Z" transform="translate(-107.8 -426.6)"/><path class="cls-5" d="M2443.2,969.9s53.4,2.7,54.6-29.4,15.7-53.4-24.3-56.4c-32.8-2.5-43.8,11.1-46.8,21.7S2423.4,968.1,2443.2,969.9Z" transform="translate(-107.8 -426.6)"/><path class="cls-3" d="M2440.9,1168.3c-.7,1.8-.2,8.4-1.4,10.7-4.9,9.6-18.2,23.8-31.8,37h0s13.3-62.1,13.2-88.5c0-20.7,10.1-41.2,19.1-47.7a.9.9,0,0,0-.1.5c-1.9,8.2-2.9,13.7-2.5,14.3C2443,1103.9,2449.2,1148,2440.9,1168.3Z" transform="translate(-107.8 -426.6)"/><path class="cls-2" d="M2587.6,1278.2c-.2,0-168.5,3.5-160-42.4,1.2-6.9,7.3-35.9,7.2-56.1-.2-15.1-30.9-124.1-30.9-124.1s-.5-38.6,42.5-56.4a93.7,93.7,0,0,1,14.7-5c1.9,5,7,13.5,20.2,12.1,19.5-2.2,33.4-13.6,39.4-19.4l5.4.4c1.4,4.2-1.4,8-.4,12.4,3.4,15.1,5.4,31.1,14.6,43.1a335.4,335.4,0,0,1,23.6,34.9c5.5,9.4,10.7,18.6,14.3,27.8,6.4,16.9,11,37,14.1,57.4,2,13,3.3,26.1,4,38.6C2598.9,1242.9,2595.2,1277.5,2587.6,1278.2Z" transform="translate(-107.8 -426.6)"/><path class="cls-24" d="M2426.1,939.2s-10.6,41.2,7,47.2,64.5,1.5,64.8-49.1c0,0-24.7,14.5-36.4,14.1s-19.3-7.3-30.2-2.1C2431.3,949.3,2427.3,949,2426.1,939.2Z" transform="translate(-107.8 -426.6)"/><path class="cls-24" d="M2495.5,894.2c-.8-3.3-4.9-5-4.9-5-30-13.3-52.1.9-52.1.9,18.6-24.7,63.1-19.2,72.4,3.2,15.1,36.6-13,44-13,44s-27.9-11.9-11.6-26.6c5.4-4.8,8-9.2,8.9-12.9h0A11.4,11.4,0,0,0,2495.5,894.2Z" transform="translate(-107.8 -426.6)"/><path class="cls-11" d="M2420.9,1563.2l1.4-403.4s3.1-29.1,28.4-29.2c27.1-.2,28.8,28.9,28.8,28.9a3.1,3.1,0,0,1-3.2,2.5,3.3,3.3,0,0,1-3.4-2.5s-1.3-22.4-22.1-22.2-22,22.5-22,22.5l2.4,403.3Z" transform="translate(-107.8 -426.6)"/><path class="cls-11" d="M2434.7,1563.1h-16.8l1.4-17.6s-.2-2.5,3.2-2.6,9.4-.7,10,1.2S2434.7,1563.1,2434.7,1563.1Z" transform="translate(-107.8 -426.6)"/><path class="cls-3" d="M2596.3,1201.5c-58.9-2.8-107.7-48.8-107.7-48.8l103.7,10.2C2594.3,1175.9,2595.6,1189,2596.3,1201.5Z" transform="translate(-107.8 -426.6)"/><path class="cls-5" d="M2485.5,1132.7s-19.9-13.2-33.3-9.1c0,0-23.4,13.5-15,18.1s12.3.9,24,7.5,20.7,6.5,27.4,3.5Z" transform="translate(-107.8 -426.6)"/><path class="cls-5" d="M2342.1,1258s-12.1,12.1-10.2,13.6,5.7-1.7,12.1-3.4,15.4-9.9,16.3-12S2342.1,1258,2342.1,1258Z" transform="translate(-107.8 -426.6)"/><path class="cls-3" d="M2488.4,1132.6s32.1-10,40.4-18,7.7-32.4,7.7-32.4,26.9-3.8,19.7,29.9l-7.3,33.8Z" transform="translate(-107.8 -426.6)"/><path class="cls-2" d="M2522.1,987s37.4,1.1,57,26.9c15,19.8,48,128,29.4,154.9-13.7,19.8-95.5,9.4-120-16a23.3,23.3,0,0,1-3.1-7.1c-2-8.7,0-12.9,0-12.9s56.4-1.6,58.4-10.5c4.8-20.4-16.6-60.3-16.6-60.3S2497,1021.1,2522.1,987Z" transform="translate(-107.8 -426.6)"/><g class="cls-25"><path class="cls-15" d="M2870.6,1447s19.1-22.3,1.2-36.5c0,0-13.2-8-23.9-7.3,0,0,15.2,25.4,10.3,27.9s-14.9-29.5-14.9-29.5-29.8-2.9-39.4,1.7c0,0,25.5,20.9,20.1,22.1s-32.9-19.2-32.9-19.2-27.9,4.7-26.4,21.7,11.1,22.2,15.3,21.7,28.8-9.8,29.4-6.4-14.3,14.7-24.7,15.3c0,0,19.6,21.6,32.6,15.3s14.2-16.1,22.3-19.8,15.1-3.7,11.7.1-18,7.4-22.7,15.7-8.8,13.7,4.7,11.7,35.4-11.9,36.3-23.2Z" transform="translate(-107.8 -426.6)"/><path class="cls-15" d="M2778.4,1428.3s75.5-2.9,92.2,18.7c0,0,3.7,11.1,15,21.1l1.8,4.8s-13.1-13.8-17.8-14.6C2869.6,1458.3,2877,1431.5,2778.4,1428.3Z" transform="translate(-107.8 -426.6)"/><path class="cls-15" d="M2885.6,1468.1s16.2,12,17.4,33.4l-3,.3s-5.2-22.2-14.5-30.8S2885.6,1468.1,2885.6,1468.1Z" transform="translate(-107.8 -426.6)"/><path class="cls-15" d="M2937.6,1418.9s-30.5-17.1-16.3-40.2c0,0,11.4-14.2,23.6-17.9,0,0-6.5,34.5,0,35.4s4.4-39,4.4-39,32.1-15.5,44.7-14.3c0,0-19.9,33.8-13.4,32.9s28.9-34.9,28.9-34.9,32.9-6.1,38.2,13.4-3.3,29.3-8.2,30.5-36.1.8-35.3,4.9,21.9,10.5,33.7,6.9c0,0-13,32.1-30.1,30.4s-22.3-12.2-32.9-13-18.2,2.1-13,4.9,23.2.9,31.7,8.2,15.5,11.7-.4,15-44.3,1.2-50-11Z" transform="translate(-107.8 -426.6)"/><path class="cls-15" d="M3032.6,1360.4s-85.3,27.6-95,58.5c0,0,.4,13.8-8.2,29.7v6.1s9-20.8,13.8-23.6C2943.2,1431.1,2924.2,1404.3,3032.6,1360.4Z" transform="translate(-107.8 -426.6)"/><path class="cls-15" d="M2929.4,1448.6s-13.1,19.9-5.6,44.3l3.4-.9s-3.3-26.8,3.6-40.3S2929.4,1448.6,2929.4,1448.6Z" transform="translate(-107.8 -426.6)"/><path class="cls-26" d="M2889.1,1395.4s40.1-22.5,21.4-53c0,0-15-18.8-31.1-23.6,0,0,8.6,45.5,0,46.6s-5.8-51.4-5.8-51.4-42.3-20.4-59-18.8c0,0,26.3,44.5,17.7,43.4s-38-46-38-46-43.4-8.1-50.3,17.6,4.2,38.6,10.7,40.2,47.6,1.1,46.6,6.4-29,13.9-44.5,9.1c0,0,17.2,42.3,39.6,40.2s29.5-16.1,43.4-17.1,24.1,2.6,17.2,6.4-30.6,1.2-41.8,10.8-20.4,15.4.5,19.7,58.4,1.6,65.9-14.5Z" transform="translate(-107.8 -426.6)"/><path class="cls-26" d="M2763.8,1318.3s112.4,36.4,125.3,77.1c0,0-.6,18.2,10.7,39.1v8s-11.8-27.3-18.2-31.1C2881.6,1411.4,2906.8,1376.1,2763.8,1318.3Z" transform="translate(-107.8 -426.6)"/><path class="cls-26" d="M2899.8,1434.5s17.3,26.3,7.5,58.4l-4.5-1.2s4.3-35.3-4.8-53.1S2899.8,1434.5,2899.8,1434.5Z" transform="translate(-107.8 -426.6)"/><path class="cls-26" d="M2890.4,1562.4a78.6,78.6,0,0,1-78.6-78.7h157.3A78.7,78.7,0,0,1,2890.4,1562.4Z" transform="translate(-107.8 -426.6)"/><path class="cls-27" d="M2871.1,1561.8a78.7,78.7,0,0,0,88.4-78.1H2940A78.7,78.7,0,0,1,2871.1,1561.8Z" transform="translate(-107.8 -426.6)"/><rect class="cls-15" x="2810" y="1483.7" width="161.7" height="2.41" transform="translate(5673.9 2543.3) rotate(180)"/><rect class="cls-15" x="2857.4" y="1555.5" width="65.4" height="6.93" transform="translate(5672.3 2691.3) rotate(180)"/></g><polygon class="cls-10" points="645.6 701 455 701 473.7 564.6 664.3 564.6 645.6 701"/><polygon class="cls-11" points="650.1 701 459.5 701 478.2 564.6 668.8 564.6 650.1 701"/><polygon class="cls-10" points="586.8 623.6 570.7 733.2 532.5 733.2 533.2 728.4 548.6 623.6 586.8 623.6"/><polygon class="cls-12" points="573.5 733.2 535.3 733.2 551.4 623.6 589.6 623.6 573.5 733.2"/><path class="cls-12" d="M646.6,1159.8h63.3a4.9,4.9,0,0,0-4.9-4.9H647.3Z" transform="translate(-107.8 -426.6)"/><path class="cls-10" d="M670.2,1159.8H640.3l.7-4.9h24.4A4.8,4.8,0,0,1,670.2,1159.8Z" transform="translate(-107.8 -426.6)"/><path class="cls-22" d="M626.6,1562.7H730.1c5-6.1,3.1-28.5,2.4-35.9-.2-1.4-.3-2.3-.3-2.3s-35.3-28.3-40.2-6.6a19.4,19.4,0,0,1-.5,2c-6.1,20.2-33.6,29.4-49.4,32C631.8,1553.6,628,1558.9,626.6,1562.7Z" transform="translate(-107.8 -426.6)"/><path class="cls-3" d="M909.1,1226.2c-3.8,0-177.4,32.6-206.1,68.2-14.3,17.7-16.5,222.8-16.5,222.8s17.8,22,56.1,9.2c0,0,28.1-140.3,26-182.8-.5-11.8,118.7-1.7,140.5-7.4s75.1-53.1,63.4-76.2S909.1,1226.2,909.1,1226.2Z" transform="translate(-107.8 -426.6)"/><path class="cls-5" d="M783.4,1216.6s-11.1,9.6-22.5,12.3a102.2,102.2,0,0,0-16.6,5c-10.3,4.7-29.8,25.9-28,28,5.8,6.7,29.3-10.8,33.8-9.6s-7.4,11.4-2.7,14.2c2.5,1.4,7.1-7.4,11.4-8.6,5.9-1.7,9.8-10.5,11.6-11.1,3.4-1.2,17.6-14,17.6-14Z" transform="translate(-107.8 -426.6)"/><path class="cls-11" d="M580.8,1562.7H684.3c5-6.1,3.2-28.5,2.4-35.9-.1-1.4-.2-2.3-.2-2.3s-35.4-28.3-40.2-6.6l-.6,2c-6.1,20.2-33.5,29.4-49.4,32C586,1553.6,582.2,1558.9,580.8,1562.7Z" transform="translate(-107.8 -426.6)"/><path class="cls-2" d="M857.9,1226.2c-3.7,0-177.3,32.6-206.1,68.2-14.3,17.7-16.4,222.8-16.4,222.8s17.7,22,56,9.2c0,0,28.2-140.3,26.1-182.8-.6-11.8,118.6-1.7,140.4-7.4s75.1-53.1,63.4-76.2S857.9,1226.2,857.9,1226.2Z" transform="translate(-107.8 -426.6)"/><path class="cls-5" d="M868.8,1015.2c12.5-1,25.6-4.3,36.9-8,14.1-4.6,25.5-11.3,18.2-24.2s-17.7-38.6-17-60.6l-26.3,21.2L862.7,958a227.1,227.1,0,0,0,2,23.4c.4,2.7.8,5.6,1.3,8.8a6.4,6.4,0,0,1-3,6.4l-.4.2C853.8,1002.4,858.3,1016.1,868.8,1015.2Z" transform="translate(-107.8 -426.6)"/><path class="cls-14" d="M862.7,954.5s-.9,3.1.6,14.5c16-2.6,30.9-15.3,30.9-15.3-8.1-2.3-11.1-11-17.1-10.2Z" transform="translate(-107.8 -426.6)"/><path class="cls-5" d="M847.9,957.1S909.3,967.3,915,929s17.6-62.8-21.3-70.9-48.8,5.4-53.8,17.7S832.1,953.5,847.9,957.1Z" transform="translate(-107.8 -426.6)"/><path class="cls-11" d="M830.9,858.8c-2.7,9.2,4.4,20.5,16.2,24.2,17.6,5.5,13.7,27,21.6,26.7s11.1-12.4,18.2-2.7-5.1,18-4.3,22.5c1.3,7.8,13.5,23.6,24.4,22.8s31.4-52.8,27.3-68.9-20.4-33.1-36-35.4-37,4.4-42,4.4S832.3,853.8,830.9,858.8Z" transform="translate(-107.8 -426.6)"/><path class="cls-19" d="M815.7,1214.7c1,8.9,2.9,14.9,5.8,16.8,9.1,6.2,21.2,13.8,34.8,21.3,47.9,26.8,113.6,52.6,127,7.4,15.7-53.1,5.4-152.8-10-214.7-8.9-35.7-33.4-73.2-50-73.1-28.2,0-68.8,7.5-85.1,47.9-6.4,15.7-15.7,69.9-20.5,119.6C814.9,1169.5,813.7,1197.5,815.7,1214.7Z" transform="translate(-107.8 -426.6)"/><path class="cls-20" d="M926.2,972.7l-8.5-13.6s-55.1,5.5-64.7,38.1C853,997.2,897.3,973.4,926.2,972.7Z" transform="translate(-107.8 -426.6)"/><path class="cls-20" d="M815.7,1214.7c1,8.9,2.9,14.9,5.8,16.8,9.1,6.2,21.2,13.8,34.8,21.3,14.1-8.6,43.1-29,49.8-53.2,8.9-31.5,2.7-70.4,2.7-70.4Z" transform="translate(-107.8 -426.6)"/><path class="cls-19" d="M914.7,1021.3s-4.9,135.6-12.6,162.4c-13.2,45.7-133.1,62-133.1,62s-7.1-8-3.9-21.3c0,0,71.7-56.5,73.8-67.3s-15.7-83.6,4.6-110.2S901.1,997.5,914.7,1021.3Z" transform="translate(-107.8 -426.6)"/><path class="cls-12" d="M1082.1,1565.8h.4a5.5,5.5,0,0,0,5.4-5.8l-21.5-217.2-18.9,1.7,31,218.3A3.6,3.6,0,0,0,1082.1,1565.8Z" transform="translate(-107.8 -426.6)"/><path class="cls-12" d="M971.2,1565.8h.4a5.5,5.5,0,0,0,5.4-5.8l-21.6-217.2-18.8,1.7,31,218.3A3.6,3.6,0,0,0,971.2,1565.8Z" transform="translate(-107.8 -426.6)"/><path class="cls-12" d="M763,1565.8h-.4a5.5,5.5,0,0,1-5.5-5.8l21.6-217.2,18.8,1.7-31,218.3A3.5,3.5,0,0,1,763,1565.8Z" transform="translate(-107.8 -426.6)"/><path class="cls-12" d="M1076,1312.1l20.4-181.4c2.7-26.1-5.9-51.7-43.3-53.7l-65.8-4c-38.9-1.7-56.5,31.1-61.5,56.3l-39,199.3Z" transform="translate(-107.8 -426.6)"/><path class="cls-12" d="M665.4,884.7H967.9a0,0,0,0,1,0,0v24.1a10.7,10.7,0,0,1-10.7,10.7H665.4a10.7,10.7,0,0,1-10.7-10.7V895.4A10.7,10.7,0,0,1,665.4,884.7Z"/><path class="cls-12" d="M787.3,884.7H967.9a0,0,0,0,1,0,0v26.4a8.3,8.3,0,0,1-8.3,8.3H787.3a8.3,8.3,0,0,1-8.3-8.3V893A8.3,8.3,0,0,1,787.3,884.7Z"/><polygon class="cls-2" points="482.1 38 482.1 203.2 480.3 203.2 480.3 38.2 482.1 38"/><polygon class="cls-2" points="698.7 36.1 698.7 203.2 696.9 203.2 696.9 36 698.7 36.1"/><rect class="cls-2" x="424.3" y="203.2" width="316.7" height="79.8"/><path class="cls-9" d="M576.1,655.6l-7.3,2.1-1.5-5.8,10.9-3.5h5v41h-7.1Z" transform="translate(-107.8 -426.6)"/><rect class="cls-9" x="527.8" y="221" width="179.4" height="5.93"/><rect class="cls-9" x="527.8" y="237.3" width="147.7" height="5.93"/><rect class="cls-9" x="527.8" y="253.7" width="105.2" height="5.93"/><polygon class="cls-2" points="1241.8 41.5 1241.8 203.2 1239.9 203.2 1239.9 41.7 1241.8 41.5"/><polygon class="cls-2" points="1458.4 17.6 1458.4 203.2 1456.6 203.2 1456.6 17.8 1458.4 17.6"/><rect class="cls-2" x="1183.9" y="203.2" width="316.7" height="79.8"/><path class="cls-9" d="M1328.3,683.7l14-11.9c5.6-4.7,7.6-7.3,7.6-11s-2.8-6.3-6.6-6.3-6.2,2-9.4,6.1l-5-4c3.9-5.4,7.7-8.5,15-8.5s13.4,4.9,13.4,12.2-3.4,9.9-10.6,15.8l-8.4,7h19.4v6.3h-29.4Z" transform="translate(-107.8 -426.6)"/><rect class="cls-9" x="1287.5" y="221" width="179.4" height="5.93"/><rect class="cls-9" x="1287.5" y="237.3" width="147.7" height="5.93"/><rect class="cls-9" x="1287.5" y="253.7" width="105.2" height="5.93"/><polygon class="cls-2" points="1994.5 48 1994.5 203.2 1992.7 203.2 1992.7 47.3 1994.5 48"/><polygon class="cls-2" points="2211.1 96.9 2211.1 203.2 2209.3 203.2 2209.3 96.7 2211.1 96.9"/><rect class="cls-2" x="1936.7" y="203.2" width="316.7" height="79.8"/><path class="cls-9" d="M2080.7,682.9l5-4.6c2.9,3.4,6.1,5.3,10.7,5.3s7-2.4,7-6.3-3.7-6.3-9.4-6.3h-3.3l-1.2-4.4,11-11.7h-17.6v-6.2h26.9V654l-11.3,11.6c6.5,1,12,4.3,12,11.6s-5.8,12.9-14.3,12.9A19.1,19.1,0,0,1,2080.7,682.9Z" transform="translate(-107.8 -426.6)"/><rect class="cls-9" x="2040.2" y="221" width="179.4" height="5.93"/><rect class="cls-9" x="2040.2" y="237.3" width="147.7" height="5.93"/><rect class="cls-9" x="2040.2" y="253.7" width="105.2" height="5.93"/><rect class="cls-28" x="51.1" y="1136" width="2958.1" height="6.3" rx="3"/></svg>